# xmcd
#
# Track frame offsets:
#	150
#	20313
#	41097
#	65739
#	86533
#	105177
#	120116
#	141330
#	164684
#	181415
#	207664
#	230019
#	249705
#	294649
#	307768
#	343446
#
# Disc length: 4774 seconds
#
# Revision: 3
# Processed by: cddbd v1.5.1PL0 Copyright (c) Steve Scherf et al.
# Submitted via: dBpowerAMP V4.0
#
DISCID=ec12a410
DTITLE=Gladys Knight and The Pips - The Best Of Gladys Knight and The Pips
DYEAR=2001
DGENRE=R&B
TTITLE0=Landlord
TTITLE1=Taste of Bitter Love
TTITLE2=Still Such a Thing
TTITLE3=Bourgié Bourgié
TTITLE4=I Will Fight
TTITLE5=A Friend of Mine
TTITLE6=Save the Overtime (For Me)
TTITLE7=You're Number One (in My Book)
TTITLE8=Hero (A/K/A Wind Beneath My Wings)
TTITLE9=When You're Far Away
TTITLE10=My Time
TTITLE11=Keep Givin' Me Love
TTITLE12=Medley (Live At The Roxy)
TTITLE13=Midnight Train to Georgia (Live at the Roxy)
TTITLE14=I Heard It Through the Grapevine (Live at the Roxy]\n
TTITLE15=DATA
EXTD=
EXTT0=
EXTT1=
EXTT2=
EXTT3=
EXTT4=
EXTT5=
EXTT6=
EXTT7=
EXTT8=
EXTT9=
EXTT10=
EXTT11=
EXTT12=
EXTT13=
EXTT14=
EXTT15=
PLAYORDER=
